<svg height="auto" viewBox="0 0 2000 1000" xmlns="http://www.w3.org/2000/svg"><path d="M0 995.018c21-8.657 63-27.712 105-43.284 42-15.571 63-13.927 105-34.574 42-20.648 63-47.155 105-68.662 42-21.508 63-42.525 105-38.875 42 3.65 63 74.638 105 57.128 42-17.511 63-111.032 105-144.681 42-33.65 63-15.139 105-23.568 42-8.43 63 8.055 105-18.58 42-26.633 63-123.415 105-114.592 42 8.824 63 152.628 105 158.711 42 6.083 63-117.543 105-128.296 42-10.752 63 100.42 105 74.533 42-25.886 63-167.743 105-203.966 42-36.224 63 71.226 105 22.849 42-48.378 63-202.436 105-264.738 42-62.302 63-60.448 105-46.772 42 13.676 63 77.51 105 115.152 42 37.643 63 129.863 105 73.062 42-56.8 84-285.653 105-357.066l5 991.201H0Z" fill="#03a51d1a"/><path d="M0 995.018c21-8.657 63-27.712 105-43.284 42-15.571 63-13.927 105-34.574 42-20.648 63-47.155 105-68.662 42-21.508 63-42.525 105-38.875 42 3.65 63 74.638 105 57.128 42-17.511 63-111.032 105-144.681 42-33.65 63-15.139 105-23.568 42-8.43 63 8.055 105-18.58 42-26.633 63-123.415 105-114.592 42 8.824 63 152.628 105 158.711 42 6.083 63-117.543 105-128.296 42-10.752 63 100.42 105 74.533 42-25.886 63-167.743 105-203.966 42-36.224 63 71.226 105 22.849 42-48.378 63-202.436 105-264.738 42-62.302 63-60.448 105-46.772 42 13.676 63 77.51 105 115.152 42 37.643 63 129.863 105 73.062 42-56.8 84-285.653 105-357.066" fill="none" stroke="#03a51d" stroke-width="4"/></svg>