<svg height="auto" viewBox="0 0 2000 1000" xmlns="http://www.w3.org/2000/svg"><path d="M0 22.865c21 1.362 63-7.531 105 6.813 42 14.345 63 54.633 105 64.91 42 10.277 63-30.683 105-13.525s63 83.148 105 99.314c42 16.167 63-27.99 105-18.48 42 9.51 63 53.541 105 66.028 42 12.487 63-40.948 105-3.594s63 181.915 105 190.365c42 8.45 63-136.408 105-148.112 42-11.704 63 69.248 105 89.594 42 20.346 63 .024 105 12.136s63 40.008 105 48.422c42 8.414 63-28.747 105-6.352 42 22.394 63 102.524 105 118.326 42 15.801 63-41.236 105-39.32 42 1.916 63 18.952 105 48.898s63 67.385 105 100.83c42 33.446 63 59.148 105 66.397 42 7.25 84-24.119 105-30.149l5 324.634H0Z" fill="#ee01011a"/><path d="M0 22.865c21 1.362 63-7.531 105 6.813 42 14.345 63 54.633 105 64.91 42 10.277 63-30.683 105-13.525s63 83.148 105 99.314c42 16.167 63-27.99 105-18.48 42 9.51 63 53.541 105 66.028 42 12.487 63-40.948 105-3.594s63 181.915 105 190.365c42 8.45 63-136.408 105-148.112 42-11.704 63 69.248 105 89.594 42 20.346 63 .024 105 12.136s63 40.008 105 48.422c42 8.414 63-28.747 105-6.352 42 22.394 63 102.524 105 118.326 42 15.801 63-41.236 105-39.32 42 1.916 63 18.952 105 48.898s63 67.385 105 100.83c42 33.446 63 59.148 105 66.397 42 7.25 84-24.119 105-30.149" fill="none" stroke="#ee0101" stroke-width="4"/></svg>