<svg height="auto" viewBox="0 0 2000 1000" xmlns="http://www.w3.org/2000/svg"><path d="M0 996.161c21-7.754 63-27.94 105-38.771s63 3.075 105-15.384 63-55.294 105-76.911c42-21.618 63-26.478 105-31.176 42-4.698 63 26.321 105 7.687 42-18.635 63-68.385 105-100.859 42-32.473 63-51.895 105-61.51 42-9.615 63 37.95 105 13.435 42-24.514 63-124.288 105-136.007 42-11.718 63 68.147 105 77.413 42 9.266 63 15.616 105-31.082 42-46.699 63-145.727 105-202.41 42-56.682 63-76.675 105-81.003 42-4.327 63 67.498 105 59.364 42-8.133 63-69.458 105-100.031 42-30.574 63-33.412 105-52.836s63-58.928 105-44.285 63 139.43 105 117.5c42-21.93 84-181.722 105-227.153l5 927.858H0Z" fill="#444cf71a"/><path d="M0 996.161c21-7.754 63-27.94 105-38.771s63 3.075 105-15.384 63-55.294 105-76.911c42-21.618 63-26.478 105-31.176 42-4.698 63 26.321 105 7.687 42-18.635 63-68.385 105-100.859 42-32.473 63-51.895 105-61.51 42-9.615 63 37.95 105 13.435 42-24.514 63-124.288 105-136.007 42-11.718 63 68.147 105 77.413 42 9.266 63 15.616 105-31.082 42-46.699 63-145.727 105-202.41 42-56.682 63-76.675 105-81.003 42-4.327 63 67.498 105 59.364 42-8.133 63-69.458 105-100.031 42-30.574 63-33.412 105-52.836s63-58.928 105-44.285 63 139.43 105 117.5c42-21.93 84-181.722 105-227.153" fill="none" stroke="#444cf7" stroke-width="4"/></svg>